Coordinates
version=1
nRows=65
nColumns=12
inDegrees=yes

Units are S.I. units (second, meters, Newtons, ...)
Angles are in degrees

endheader
time	SC_y	SC_z	SC_x	AC_y	AC_z	AC_x	GH_y	GH_z	GH_yy	EL_x	PS_y
       0.0              -35.92          7.203          25.15          68.29         -6.094         -14.18          -85.7         -17.01          128.1          6.185          112.4
   0.01164              -35.91          7.205          25.16          68.28         -6.092         -14.18         -85.68          -17.0          128.1          6.187          112.4
   0.02328              -35.91          7.207          25.17          68.28          -6.09         -14.18         -85.66         -16.98          128.1           6.19          112.4
   0.03492              -35.91           7.21          25.18          68.28         -6.088         -14.18         -85.64         -16.97          128.1          6.192          112.4
   0.04656               -35.9          7.212          25.19          68.28         -6.086         -14.18         -85.62         -16.95          128.1          6.195          112.4
    0.0582               -35.9          7.215           25.2          68.28         -6.084         -14.18         -85.59         -16.93          128.1          6.198          112.4
   0.06984              -35.89          7.218          25.21          68.28         -6.082         -14.18         -85.57         -16.91          128.1          6.201          112.4
   0.08148              -35.89          7.221          25.22          68.28          -6.08         -14.18         -85.54         -16.89          128.1          6.204          112.3
   0.09313              -35.88          7.225          25.23          68.28         -6.077         -14.18         -85.51         -16.87          128.0          6.208          112.3
    0.1048              -35.88          7.228          25.24          68.28         -6.074         -14.18         -85.48         -16.84          128.0          6.212          112.3
    0.1164              -35.87          7.232          25.25          68.27         -6.071         -14.17         -85.44         -16.82          128.0          6.216          112.3
     0.128              -35.87          7.236          25.27          68.27         -6.068         -14.17         -85.41         -16.79          128.0           6.22          112.3
    0.1397              -35.86          7.241          25.28          68.27         -6.065         -14.17         -85.37         -16.76          128.0          6.225          112.3
    0.1513              -35.85          7.246           25.3          68.27         -6.061         -14.17         -85.32         -16.73          128.0           6.23          112.2
     0.163              -35.84          7.251          25.32          68.27         -6.057         -14.17         -85.28         -16.69          128.0          6.236          112.2
    0.1746              -35.84          7.257          25.34          68.26         -6.052         -14.17         -85.23         -16.66          127.9          6.242          112.2
    0.1863              -35.83          7.263          25.36          68.26         -6.048         -14.17         -85.17         -16.61          127.9          6.248          112.2
    0.1979              -35.82           7.27          25.39          68.26         -6.042         -14.17         -85.11         -16.57          127.9          6.255          112.1
    0.2095              -35.81          7.277          25.41          68.26         -6.037         -14.17         -85.05         -16.52          127.9          6.263          112.1
    0.2212              -35.79          7.285          25.44          68.25          -6.03         -14.17         -84.97         -16.47          127.9          6.272          112.1
    0.2328              -35.78          7.294          25.47          68.25         -6.024         -14.17         -84.89         -16.41          127.8          6.281          112.0
    0.2445              -35.76          7.304           25.5          68.25         -6.016         -14.17         -84.81         -16.34          127.8          6.291          112.0
    0.2561              -35.75          7.315          25.54          68.24         -6.008         -14.16         -84.71         -16.27          127.8          6.302          112.0
    0.2677              -35.73          7.327          25.58          68.24         -5.999         -14.16         -84.61         -16.19          127.7          6.315          111.9
    0.2794              -35.71           7.34          25.63          68.23         -5.988         -14.16         -84.49         -16.11          127.7          6.329          111.9
     0.291              -35.69          7.355          25.68          68.23         -5.977         -14.16         -84.36         -16.01          127.6          6.345          111.8
    0.3027              -35.66          7.372          25.74          68.22         -5.964         -14.16         -84.21          -15.9          127.6          6.362          111.7
    0.3143              -35.64           7.39          25.81          68.21          -5.95         -14.16         -84.04         -15.78          127.5          6.382          111.7
    0.3259               -35.6          7.412          25.88          68.21         -5.934         -14.15         -83.86         -15.64          127.5          6.404          111.6
    0.3376              -35.57          7.436          25.96           68.2         -5.915         -14.15         -83.64         -15.48          127.4          6.429          111.5
    0.3492              -35.53          7.463          26.06          68.19         -5.894         -14.15          -83.4          -15.3          127.3          6.458          111.4
    0.3609              -35.48          7.495          26.17          68.17          -5.87         -14.14         -83.12         -15.09          127.2          6.491          111.2
    0.3725              -35.42          7.531           26.3          68.16         -5.842         -14.14          -82.8         -14.85          127.1          6.529          111.1
    0.3841              -35.36          7.573          26.44          68.14         -5.809         -14.13         -82.43         -14.57          126.9          6.573          110.9
    0.3958              -35.29          7.623          26.61          68.12         -5.771         -14.13         -81.99         -14.25          126.8          6.625          110.7
    0.4074               -35.2          7.681          26.82           68.1         -5.727         -14.12         -81.47         -13.86          126.6          6.686          110.5
    0.4191              -35.09          7.751          27.06          68.08         -5.674         -14.11         -80.86         -13.41          126.4          6.759          110.2
    0.4307              -34.97          7.834          27.35          68.04          -5.61          -14.1         -80.13         -12.86          126.1          6.846          109.9
    0.4423              -34.82          7.934           27.7           68.0         -5.533         -14.09         -79.24          -12.2          125.8          6.951          109.4
     0.454              -34.63          8.057          28.13          67.96         -5.439         -14.08         -78.15         -11.39          125.4          7.079          108.9
    0.4656              -34.41          8.209          28.65           67.9         -5.322         -14.06         -76.81         -10.39          124.9          7.238          108.3
    0.4773              -34.12          8.398          29.31          67.83         -5.177         -14.04         -75.14         -9.148          124.3          7.436          107.6
    0.4889              -33.77          8.636          30.14          67.74         -4.995         -14.01         -73.04         -7.581          123.5          7.685          106.6
    0.5006              -33.31          8.938          31.19          67.62         -4.763         -13.97         -70.36         -5.589          122.6          8.002          105.4
    0.5122              -32.73          9.326          32.54          67.47         -4.465         -13.93         -66.94         -3.039          121.3          8.408          103.8
    0.5238              -31.98          9.823          34.27          67.28         -4.084         -13.87         -62.54         0.2324          119.7          8.928          101.8
    0.5355              -31.03          10.46          36.48          67.03         -3.597          -13.8         -56.93          4.412          117.7          9.593          99.18
    0.5471              -29.83          11.26          39.26          66.73         -2.984          -13.7         -49.87          9.667          115.2          10.43          95.93
    0.5588              -28.37          12.23          42.65          66.35         -2.238         -13.59         -41.27          16.07          112.0          11.45          91.97
    0.5704              -26.68          13.36          46.57          65.92         -1.373         -13.45          -31.3          23.49          108.4          12.63          87.38
     0.582              -24.84          14.58          50.82          65.45        -0.4362         -13.31         -20.51          31.53          104.5          13.91          82.41
    0.5937              -23.01           15.8          55.07          64.98         0.5005         -13.17         -9.716          39.57          100.6          15.19          77.45
    0.6053              -21.32          16.93           59.0          64.55          1.366         -13.03         0.2529          46.99          97.03          16.37          72.86
     0.617              -19.85           17.9          62.39          64.18          2.112         -12.92          8.853          53.39          93.92          17.39           68.9
    0.6286              -18.66           18.7          65.16          63.87          2.724         -12.83          15.91          58.65          91.37          18.22          65.65
    0.6402               -17.7          19.33          67.37          63.62          3.212         -12.75          21.52          62.83          89.34          18.89          63.07
    0.6519              -16.96          19.83           69.1          63.43          3.593         -12.69          25.92           66.1          87.75          19.41          61.05
    0.6635              -16.37          20.22          70.45          63.29           3.89         -12.65          29.34          68.65          86.51          19.81          59.47
    0.6752              -15.92          20.52          71.51          63.17          4.122         -12.61          32.02          70.64          85.54          20.13          58.24
    0.6868              -15.56          20.76          72.33          63.08          4.305         -12.58          34.12          72.21          84.78          20.38          57.27
    0.6984              -15.28          20.95          72.99           63.0           4.45         -12.56          35.79          73.45          84.18          20.58           56.5
    0.7101              -15.05           21.1          73.52          62.95          4.566         -12.54          37.13          74.45          83.69          20.74          55.89
    0.7217              -14.87          21.22          73.95           62.9           4.66         -12.53          38.22          75.26           83.3          20.86          55.39
    0.7334              -14.72          21.32           74.3          62.86          4.737         -12.52          39.11          75.92          82.98          20.97          54.98
     0.745              -14.59          21.41          74.59          62.83          4.801         -12.51          39.84          76.47          82.71          21.06          54.64
